<svg width="320" height="320" viewBox="48 48 224 224" fill="none" xmlns="http://www.w3.org/2000/svg" role="img" aria-labelledby="title desc">
  <title id="title">Logo Equinoxe Conseil RH</title>
  <desc id="desc">Monogramme ER dans un cercle fin, avec accents bleu nuit et champagne.</desc>
  <defs>
    <radialGradient id="glow" cx="58%" cy="45%" r="45%">
      <stop offset="0%" stop-color="#C6A86B" stop-opacity="0.34"/>
      <stop offset="45%" stop-color="#C6A86B" stop-opacity="0.16"/>
      <stop offset="100%" stop-color="#FFFFFF" stop-opacity="0"/>
    </radialGradient>
    <linearGradient id="champagneLine" x1="205" y1="65" x2="270" y2="240" gradientUnits="userSpaceOnUse">
      <stop stop-color="#D9BE83"/>
      <stop offset="1" stop-color="#B89454"/>
    </linearGradient>
    <linearGradient id="inkLine" x1="72" y1="112" x2="167" y2="254" gradientUnits="userSpaceOnUse">
      <stop stop-color="#111820"/>
      <stop offset="1" stop-color="#1F3347"/>
    </linearGradient>
    <filter id="softShadow" x="54" y="78" width="140" height="156" filterUnits="userSpaceOnUse" color-interpolation-filters="sRGB">
      <feDropShadow dx="0" dy="10" stdDeviation="8" flood-color="#111820" flood-opacity="0.2"/>
    </filter>
  </defs>
  <rect width="320" height="320" rx="160" fill="#FFFFFF"/>
  <circle cx="176" cy="142" r="92" fill="url(#glow)"/>
  <path d="M193 70C228 80 255 110 263 147C271 184 258 220 231 243" stroke="url(#champagneLine)" stroke-width="2.2" stroke-linecap="round"/>
  <path d="M181 72C217 79 246 108 255 144" stroke="#C6A86B" stroke-opacity="0.34" stroke-width="0.9" stroke-linecap="round"/>
  <path d="M96 108C75 138 69 176 83 209C97 242 128 263 164 265" stroke="url(#inkLine)" stroke-width="2.2" stroke-linecap="round"/>
  <path d="M98 112C80 143 77 179 91 208" stroke="#1F3347" stroke-opacity="0.28" stroke-width="0.9" stroke-linecap="round"/>
  <g filter="url(#softShadow)">
    <text x="82" y="204" fill="#111820" font-family="Georgia, 'Times New Roman', serif" font-size="132" font-weight="700" letter-spacing="-10">E</text>
  </g>
  <text x="147" y="205" fill="none" stroke="#C6A86B" stroke-opacity="0.72" stroke-width="2" font-family="Georgia, 'Times New Roman', serif" font-size="118" font-weight="400" letter-spacing="-8">R</text>
  <path d="M169 113H208" stroke="#111820" stroke-opacity="0.32" stroke-width="1.3" stroke-linecap="round"/>
  <path d="M167 197H210" stroke="#111820" stroke-opacity="0.32" stroke-width="1.3" stroke-linecap="round"/>
</svg>
